#!OML:ASF H:\Martial Arts Walks\Project 1\Capture day 1\Session 1\male.ASF
:FULLY-SPECIFIED
:DEGREES
1751
root -3.10619 14.4745 -32.9544 8.58046 -16.4805 -6.93977
lowerback 19.7194 1.79402 -5.43887
upperback -1.45409 1.37731 2.34438
thorax -12.9881 1.13048 5.33894
lowerneck -3.43299 3.45696 -5.55284
upperneck -0.847063 4.81273 6.13743
head 0.0227618 2.45704 2.96413
rclavicle -7.53394e-014 0
rhumerus 27.8643 56.9552 -64.7921
rradius 55.8054
rwrist 11.2083
rhand 5.1569 -24.9271
rfingers 7.12502
rthumb 30.5196 -52.419
lclavicle -7.53394e-014 0
lhumerus 114.153 -37.7537 13.07
lradius 117.381
lwrist -14.0331
lhand -27.2733 45.7167
lfingers 7.12502
lthumb -0.68407 -284.305
rfemur -26.3543 -4.67881 14.053
rtibia 89.7065
rfoot -10.0997 -25.3695
rtoes 15.1314
lfemur -64.3109 26.2352 -29.4053
ltibia 77.1872
lfoot -14.518 26.4081
ltoes 3.62323
1752
root -3.10761 14.4764 -33.096 8.71612 -17.8351 -7.29952
lowerback 19.3091 2.0074 -5.19296
upperback -1.56525 1.73998 2.33824
thorax -12.9195 1.28144 5.07811
lowerneck -3.6535 3.62485 -5.49543
upperneck -0.223727 5.02237 6.07266
head 0.24853 2.56491 2.94723
rclavicle 1.42131e-014 1.03368e-014
rhumerus 29.9616 59.3004 -63.0603
rradius 56.4626
rwrist 10.9243
rhand 5.92042 -25.4303
rfingers 7.12502
rthumb 31.2475 -52.7843
lclavicle 1.42131e-014 1.03368e-014
lhumerus 113.051 -37.0426 13.8764
lradius 116.383
lwrist -16.8466
lhand -27.4462 44.3744
lfingers 7.12502
lthumb -0.851066 -285.648
rfemur -23.1339 -4.4356 12.7489
rtibia 87.1418
rfoot -8.63306 -25.781
rtoes 16.8371
lfemur -64.874 27.1638 -29.0625
ltibia 77.0115
lfoot -13.9103 26.4311
ltoes 4.07508
1753
root -3.11127 14.4751 -33.2394 8.87923 -19.185 -7.71866
lowerback 18.9021 2.22701 -4.83453
upperback -1.69458 2.13399 2.3215
thorax -12.868 1.43975 4.73432
lowerneck -3.8798 3.77969 -5.35646
upperneck 0.450003 5.21004 5.97943
head 0.495933 2.66139 2.90911
rclavicle 1.47101e-014 -4.92986e-014
rhumerus 32.1929 61.5058 -61.1556
rradius 57.3156
rwrist 10.9127
rhand 6.87301 -25.8934
rfingers 7.12502
rthumb 32.1548 -53.0682
lclavicle 1.47101e-014 -4.92986e-014
lhumerus 111.561 -36.5476 14.8136
lradius 115.475
lwrist -19.3836
lhand -27.4954 42.1241
lfingers 7.12502
lthumb -0.89856 -287.898
rfemur -20.0411 -4.29087 11.5019
rtibia 84.3587
rfoot -7.11323 -26.1983
rtoes 18.4317
lfemur -65.4567 28.1031 -28.6468
ltibia 76.8691
lfoot -13.3014 26.4696
ltoes 4.5549
1754
root -3.11738 14.4714 -33.3851 9.07767 -20.5339 -8.19005
lowerback 18.5107 2.45197 -4.38226
upperback -1.84847 2.55203 2.29194
thorax -12.8446 1.60339 4.31858
lowerneck -4.10795 3.92297 -5.13585
upperneck 1.16554 5.37726 5.86672
head 0.761592 2.74757 2.85298
rclavicle -8.64713e-015 -1.74931e-014
rhumerus 34.4615 63.5608 -59.1625
rradius 58.421
rwrist 11.229
rhand 8.01947 -26.2835
rfingers 7.12502
rthumb 33.2455 -53.2316
lclavicle -8.64713e-015 -1.74931e-014
lhumerus 109.685 -36.266 15.8219
lradius 114.727
lwrist -21.7748
lhand -27.4564 39.5164
lfingers 7.12502
lthumb -0.860865 -290.506
rfemur -17.1103 -4.27213 10.3025
rtibia 81.4189
rfoot -5.65195 -26.5815
rtoes 19.8463
lfemur -66.0583 29.0561 -28.1687
ltibia 76.7465
lfoot -12.6822 26.516
ltoes 5.05568
1755
root -3.12608 14.4659 -33.534 9.31436 -21.8934 -8.70102
lowerback 18.1432 2.68199 -3.86541
upperback -2.02999 2.98633 2.24923
thorax -12.8558 1.77044 3.84983
lowerneck -4.33007 4.05827 -4.84363
upperneck 1.91084 5.52866 5.74252
head 1.04001 2.82617 2.78329
rclavicle 3.76697e-014 2.94201e-014
rhumerus 36.621 65.4626 -57.2171
rradius 59.83
rwrist 11.9237
rhand 9.3533 -26.5444
rfingers 7.12502
rthumb 34.5127 -53.2129
lclavicle 3.76697e-014 2.94201e-014
lhumerus 107.388 -36.2115 16.8812
lradius 114.186
lwrist -24.1321
lhand -27.419 37.0811
lfingers 7.12502
lthumb -0.824795 -292.941
rfemur -14.3734 -4.39937 9.13289
rtibia 78.3917
rfoot -4.34706 -26.8917
rtoes 20.9999
lfemur -66.6712 30.0297 -27.6418
ltibia 76.6276
lfoot -12.0432 26.5661
ltoes 5.56556
1756
root -3.1374 14.4598 -33.6865 9.58846 -23.2797 -9.23613
lowerback 17.8015 2.91658 -3.31786
upperback -2.23837 3.42905 2.19595
thorax -12.9015 1.93909 3.3526
lowerneck -4.5332 4.19144 -4.50087
upperneck 2.6697 5.67256 5.61273
head 1.32307 2.90154 2.70526
rclavicle -6.41081e-014 -1.43125e-014
rhumerus 38.466 67.2168 -55.5153
rradius 61.5805
rwrist 13.0273
rhand 10.8479 -26.5915
rfingers 7.12502
rthumb 35.9301 -52.9252
lclavicle -6.41081e-014 -1.43125e-014
lhumerus 104.607 -36.4062 18.0168
lradius 113.876
lwrist -26.5413
lhand -27.5334 35.2047
lfingers 7.12502
lthumb -0.935272 -294.818
rfemur -11.8594 -4.68592 7.97067
rtibia 75.3488
rfoot -3.25722 -27.095
rtoes 21.8242
lfemur -67.2815 31.0318 -27.0796
ltibia 76.4954
lfoot -11.3786 26.6182
ltoes 6.07926
1757
root -3.15126 14.454 -33.8428 9.89503 -24.7108 -9.77815
lowerback 17.4822 3.15469 -2.77355
upperback -2.46854 3.87246 2.13688
thorax -12.975 2.10761 2.85365
lowerneck -4.70323 4.33033 -4.13573
upperneck 3.42556 5.821 5.48025
head 1.60199 2.97955 2.62411
rclavicle -6.94752e-014 1.82882e-014
rhumerus 39.7389 68.8367 -54.3055
rradius 63.6924
rwrist 14.5259
rhand 12.441 -26.3291
rfingers 7.12502
rthumb 37.4377 -52.2792
lclavicle -6.94752e-014 1.82882e-014
lhumerus 101.249 -36.8696 19.3022
lradius 113.796
lwrist -29.0717
lhand -27.9683 34.1396
lfingers 7.12502
lthumb -1.35532 -295.885
rfemur -9.59211 -5.13925 6.79223
rtibia 72.3584
rfoot -2.37054 -27.1628
rtoes 22.2725
lfemur -67.8678 32.0696 -26.4938
ltibia 76.3318
lfoot -10.6867 26.6742
ltoes 6.59637
1758
root -3.16755 14.4499 -34.0029 10.2279 -26.1993 -10.3118
lowerback 17.178 3.39325 -2.26034
upperback -2.71224 4.3078 2.07862
thorax -13.0649 2.27368 2.37864
lowerneck -4.82893 4.48463 -3.77756
upperneck 4.16399 5.98938 5.34328
head 1.86894 3.06738 2.54367
rclavicle -2.48481e-015 -1.19271e-014
rhumerus 40.1324 70.3379 -53.883
rradius 66.1647
rwrist 16.3388
rhand 14.0278 -25.6565
rfingers 7.12502
rthumb 38.9357 -51.1949
lclavicle -2.48481e-015 -1.19271e-014
lhumerus 97.198 -37.6043 20.8609
lradius 113.923
lwrist -31.7768
lhand -28.8337 34.0594
lfingers 7.12502
lthumb -2.19107 -295.972
rfemur -7.58788 -5.76138 5.58131
rtibia 69.4788
rfoot -1.62 -27.0732
rtoes 22.3353
lfemur -68.4069 33.1444 -25.8917
ltibia 76.1184
lfoot -9.96514 26.7399
ltoes 7.11973
1759
root -3.18623 14.4486 -34.1668 10.5801 -27.7536 -10.8268
lowerback 16.8806 3.62821 -1.79698
upperback -2.95883 4.72693 2.02846
thorax -13.1571 2.43505 1.94868
lowerneck -4.90545 4.66502 -3.4493
upperneck 4.87703 6.19485 5.19394
head 2.11935 3.17276 2.46501
rclavicle -5.08889e-014 7.95139e-015
rhumerus 39.2899 71.7278 -54.589
rradius 68.971
rwrist 18.3044
rhand 15.4524 -24.4834
rfingers 7.12502
rthumb 40.2774 -49.6252
lclavicle -5.08889e-014 7.95139e-015
lhumerus 92.3163 -38.5784 22.8607
lradius 114.223
lwrist -34.6777
lhand -30.117 35.1499
lfingers 7.12502
lthumb -3.43044 -294.898
rfemur -5.85278 -6.54421 4.33441
rtibia 66.7526
rfoot -0.901895 -26.8102
rtoes 22.028
lfemur -68.8706 34.2547 -25.2718
ltibia 75.838
lfoot -9.21608 26.8228
ltoes 7.66092
1760
root -3.20735 14.4515 -34.3343 10.946 -29.3743 -11.3215
lowerback 16.5855 3.85579 -1.38926
upperback -3.19625 5.1243 1.99231
thorax -13.2378 2.59003 1.57523
lowerneck -4.94263 4.88038 -3.15897
upperneck 5.5657 6.4519 5.01845
head 2.35492 3.30207 2.38549
rclavicle 4.44284e-014 5.32743e-014
rhumerus 36.8058 72.984 -56.8095
rradius 72.0582
rwrist 20.1731
rhand 16.5265 -22.7475
rfingers 7.12502
rthumb 41.2865 -47.5721
lclavicle 4.44284e-014 5.32743e-014
lhumerus 86.4582 -39.7063 25.5084
lradius 114.653
lwrist -37.7186
lhand -31.6638 37.5534
lfingers 7.12502
lthumb -4.92407 -292.524
rfemur -4.38126 -7.46834 3.06696
rtibia 64.2043
rfoot -0.123545 -26.3664
rtoes 21.3908
lfemur -69.2297 35.3933 -24.6208
ltibia 75.4761
lfoot -8.44314 26.9305
ltoes 8.23509
1761
root -3.23114 14.4593 -34.5054 11.3237 -31.0543 -11.8047
lowerback 16.295 4.07179 -1.03195
upperback -3.41349 5.4959 1.97517
thorax -13.2973 2.73692 1.26186
lowerneck -4.96143 5.13821 -2.89914
upperneck 6.23836 6.77236 4.80014
head 2.58276 3.46052 2.29968
rclavicle 2.13694e-014 0
rhumerus 32.2741 74.0422 -60.9266
rradius 75.3503
rwrist 21.6079
rhand 17.0644 -20.438
rfingers 7.12502
rthumb 41.7911 -45.0977
lclavicle 2.13694e-014 0
lhumerus 79.4837 -40.8246 29.0288
lradius 115.161
lwrist -40.7253
lhand -33.2031 41.2794
lfingers 7.12502
lthumb -6.41026 -288.838
rfemur -3.15888 -8.50017 1.81616
rtibia 61.8393
rfoot 0.773443 -25.7433
rtoes 20.4442
lfemur -69.4547 36.5474 -23.9109
ltibia 75.0228
lfoot -7.65339 27.067
ltoes 8.86296
1762
root -3.25789 14.4727 -34.6802 11.7182 -32.7788 -12.2981
lowerback 16.0187 4.27371 -0.708407
upperback -3.60094 5.84174 1.97827
thorax -13.3307 2.87484 0.999878
lowerneck -4.99493 5.44107 -2.64073
upperneck 6.90536 7.15996 4.52322
head 2.81449 3.64981 2.19941
rclavicle -8.54774e-015 3.4191e-014
rhumerus 25.4158 74.7722 -67.192
rradius 78.7568
rwrist 22.1983
rhand 16.9545 -17.5999
rfingers 7.12502
rthumb 41.6881 -42.2936
lclavicle -8.54774e-015 3.4191e-014
lhumerus 71.323 -41.6776 33.5984
lradius 115.684
lwrist -43.3817
lhand -34.4442 46.0513
lfingers 7.12502
lthumb -7.6083 -284.106
rfemur -2.16456 -9.59219 0.641219
rtibia 59.646
rfoot 1.80072 -24.952
rtoes 19.202
lfemur -69.5181 37.6984 -23.0988
ltibia 74.4749
lfoot -6.84825 27.231
ltoes 9.55083
1763
root -3.28787 14.4912 -34.8588 12.1429 -34.5248 -12.8332
lowerback 15.7713 4.46071 -0.397959
upperback -3.75069 6.16453 1.99928
thorax -13.3363 3.00351 0.77327
lowerneck -5.08226 5.78514 -2.34315
upperneck 7.57093 7.60829 4.1826
head 3.06228 3.86736 2.07838
rclavicle 6.57977e-014 2.70347e-014
rhumerus 16.3834 74.9872 -75.4223
rradius 82.1915
rwrist 21.4886
rhand 16.2223 -14.3443
rfingers 7.12502
rthumb 41.0009 -39.2604
lclavicle 6.57977e-014 2.70347e-014
lhumerus 62.0727 -41.9209 39.2401
lradius 116.139
lwrist -45.2409
lhand -35.1971 51.2949
lfingers 7.12502
lthumb -8.33501 -278.89
rfemur -1.37485 -10.6879 -0.383464
rtibia 57.5993
rfoot 2.92932 -24.0163
rtoes 17.6339
lfemur -69.3976 38.8185 -22.1303
ltibia 73.8368
lfoot -6.02291 27.4134
ltoes 10.2874
